<svg width="426" height="125" viewBox="0 0 426 125" fill="none" xmlns="http://www.w3.org/2000/svg">
<g clip-path="url(#clip0_11_520)">
<g clip-path="url(#clip1_11_520)">
<path d="M75.1673 66.4444C73.0483 66.4444 71.3228 69.6394 71.3228 73.5873C71.3228 77.5341 73.0483 80.738 75.1673 80.738C77.2853 80.738 79.0075 77.5352 79.0075 73.5873C79.0108 69.6372 77.2886 66.4444 75.1673 66.4444Z" fill="#FF4848"/>
<path d="M59.0779 66.4444C56.9544 66.4444 55.2322 69.6394 55.2322 73.5873C55.2322 77.5341 56.9544 80.738 59.0779 80.738C61.198 80.738 62.9192 77.5352 62.9192 73.5873C62.9192 69.6394 61.198 66.4444 59.0779 66.4444Z" fill="#FF4848"/>
<path d="M100.721 46.2454C101.368 44.6617 103.492 38.2727 100.048 29.6416C100.048 29.6416 94.7717 27.9721 82.8203 36.1383C77.8161 34.7611 72.4383 34.5556 67.1199 34.5556C61.8014 34.5556 56.428 34.7611 51.4085 36.1427C39.4614 27.971 34.1869 29.6405 34.1869 29.6405C30.7479 38.276 32.8735 44.6606 33.5187 46.2454C29.4685 50.6231 27 56.2119 27 63.0636C27 88.8591 43.7083 94.6919 67.0264 94.6919C90.3556 94.6919 107.235 88.8602 107.235 63.0636C107.235 56.2119 104.767 50.622 100.716 46.2454H100.721ZM67.122 89.756C50.5589 89.756 37.1302 88.98 37.1302 72.9334C37.1302 69.1009 39.0163 65.5223 42.2498 62.5657C47.6353 57.6308 56.7676 60.239 67.1231 60.239C77.4864 60.239 86.6055 57.6308 91.9965 62.5602C95.2333 65.5223 97.1248 69.0899 97.1248 72.929C97.1248 88.9811 83.6874 89.756 67.1242 89.756H67.122Z" fill="#FF4848"/>
<path d="M147.263 59.5874C147.667 59.5874 148.01 59.7287 148.293 60.0115C148.576 60.2943 148.717 60.6376 148.717 61.0416V64.0307C148.717 64.4077 148.576 64.7376 148.293 65.0204C148.01 65.3032 147.667 65.4445 147.263 65.4445H133.973V75.7855C133.973 76.1625 133.839 76.4924 133.569 76.7751C133.3 77.0579 132.963 77.1993 132.559 77.1993H129.489C129.112 77.1993 128.783 77.0579 128.5 76.7751C128.217 76.4924 128.076 76.1625 128.076 75.7855V61.0416C128.076 60.6376 128.217 60.2943 128.5 60.0115C128.783 59.7287 129.112 59.5874 129.489 59.5874H147.263ZM149.081 47.2267C149.458 47.2267 149.788 47.3681 150.07 47.6509C150.353 47.9336 150.495 48.2635 150.495 48.6405V51.5893C150.495 51.9932 150.353 52.3366 150.07 52.6194C149.788 52.9021 149.458 53.0435 149.081 53.0435H129.489C129.112 53.0435 128.783 52.9021 128.5 52.6194C128.217 52.3366 128.076 51.9932 128.076 51.5893V48.6405C128.076 48.2635 128.217 47.9336 128.5 47.6509C128.783 47.3681 129.112 47.2267 129.489 47.2267H149.081ZM165.158 71.5845C165.481 71.6922 165.737 71.874 165.925 72.1298C166.114 72.3856 166.208 72.6751 166.208 72.9983V76.1086C166.208 76.5395 166.033 76.903 165.683 77.1993C165.413 77.4147 165.117 77.5224 164.794 77.5224C164.659 77.5224 164.565 77.509 164.511 77.482C162.007 76.9973 159.853 75.8393 158.048 74.0081C155.625 71.5306 154.413 68.2721 154.413 64.2327V48.6809C154.413 48.277 154.554 47.9336 154.837 47.6509C155.12 47.3681 155.45 47.2267 155.827 47.2267H158.937C159.341 47.2267 159.684 47.3681 159.967 47.6509C160.25 47.9336 160.391 48.277 160.391 48.6809V64.3135C160.391 66.8718 161.118 68.8242 162.572 70.1707C163.326 70.8708 164.188 71.3421 165.158 71.5845ZM179.094 47.2267C179.498 47.2267 179.841 47.3681 180.124 47.6509C180.406 47.9336 180.548 48.277 180.548 48.6809V64.2327C180.548 68.2721 179.336 71.5306 176.912 74.0081C175.108 75.8393 172.954 76.9973 170.449 77.482C170.395 77.509 170.301 77.5224 170.167 77.5224C169.843 77.5224 169.547 77.4147 169.278 77.1993C168.928 76.93 168.753 76.553 168.753 76.0682V72.9579C168.753 72.6616 168.847 72.3856 169.035 72.1298C169.224 71.874 169.48 71.6922 169.803 71.5845C170.826 71.2882 171.688 70.817 172.388 70.1707C173.842 68.878 174.569 66.9257 174.569 64.3135V48.6809C174.569 48.277 174.711 47.9336 174.994 47.6509C175.276 47.3681 175.62 47.2267 176.024 47.2267H179.094ZM211.53 47.2267C211.907 47.2267 212.237 47.3681 212.52 47.6509C212.803 47.9336 212.944 48.2635 212.944 48.6405V75.7047C212.944 76.0817 212.803 76.4116 212.52 76.6943C212.237 76.9771 211.907 77.1185 211.53 77.1185H207.976C207.491 77.1185 207.1 76.93 206.804 76.553L187.051 49.4888C186.89 49.2734 186.795 49.031 186.769 48.7617C186.742 48.4924 186.789 48.2366 186.91 47.9942C187.031 47.7518 187.206 47.5633 187.435 47.4287C187.664 47.294 187.913 47.2267 188.182 47.2267H191.737C191.952 47.2267 192.168 47.2739 192.383 47.3681C192.599 47.4624 192.76 47.6037 192.868 47.7922L207.046 67.0603V48.6405C207.046 48.2635 207.181 47.9336 207.45 47.6509C207.72 47.3681 208.056 47.2267 208.46 47.2267H211.53ZM191.252 66.8179C191.629 66.8179 191.959 66.9526 192.242 67.2219C192.525 67.4912 192.666 67.8278 192.666 68.2317V75.7047C192.666 76.0817 192.525 76.4116 192.242 76.6943C191.959 76.9771 191.629 77.1185 191.252 77.1185H188.182C187.805 77.1185 187.475 76.9771 187.193 76.6943C186.91 76.4116 186.769 76.0817 186.769 75.7047V68.2317C186.769 67.8278 186.91 67.4912 187.193 67.2219C187.475 66.9526 187.805 66.8179 188.182 66.8179H191.252ZM245.138 74.8968C245.3 75.0853 245.394 75.3142 245.421 75.5835C245.448 75.8528 245.401 76.1086 245.28 76.351C245.158 76.5934 244.983 76.7819 244.755 76.9165C244.526 77.0512 244.277 77.1185 244.007 77.1185H240.17C239.927 77.1185 239.705 77.0646 239.503 76.9569C239.301 76.8492 239.133 76.7011 238.998 76.5126L229.344 62.6169L225.385 66.3332V75.7047C225.385 76.0817 225.244 76.4116 224.961 76.6943C224.679 76.9771 224.349 77.1185 223.972 77.1185H220.902C220.525 77.1185 220.195 76.9771 219.912 76.6943C219.629 76.4116 219.488 76.0817 219.488 75.7047V64.4751C219.488 64.0442 219.636 63.7076 219.932 63.4652L236.817 47.6307C237.086 47.3614 237.41 47.2267 237.787 47.2267H242.149C242.418 47.2267 242.674 47.3075 242.917 47.4691C243.159 47.6307 243.334 47.8461 243.442 48.1154C243.549 48.3847 243.576 48.6607 243.522 48.9435C243.469 49.2262 243.334 49.4753 243.119 49.6908L233.666 58.5775L245.138 74.8968ZM220.902 57.5273C220.525 57.5273 220.195 57.3926 219.912 57.1233C219.629 56.854 219.488 56.5174 219.488 56.1135V48.6405C219.488 48.2635 219.629 47.9336 219.912 47.6509C220.195 47.3681 220.525 47.2267 220.902 47.2267H223.972C224.349 47.2267 224.679 47.3681 224.961 47.6509C225.244 47.9336 225.385 48.2635 225.385 48.6405V56.1135C225.385 56.5174 225.244 56.854 224.961 57.1233C224.679 57.3926 224.349 57.5273 223.972 57.5273H220.902ZM260.205 47.5499C260.528 47.8192 260.69 48.1827 260.69 48.6405V51.6701C260.69 52.0202 260.589 52.3231 260.387 52.579C260.185 52.8348 259.909 53.0031 259.559 53.0839C257.836 53.434 256.368 54.2553 255.156 55.5479C253.513 57.2714 252.692 59.5133 252.692 62.2736C252.692 65.0339 253.513 67.2892 255.156 69.0396C256.368 70.3053 257.836 71.1132 259.559 71.4633C259.909 71.5441 260.185 71.7124 260.387 71.9682C260.589 72.224 260.69 72.527 260.69 72.8771V75.9067C260.69 76.3375 260.528 76.7011 260.205 76.9973C259.909 77.2127 259.599 77.3204 259.276 77.3204H259.034C255.91 76.8088 253.231 75.395 250.995 73.0791C248.195 70.1976 246.794 66.6092 246.794 62.314C246.794 58.0187 248.195 54.4034 250.995 51.4681C253.177 49.206 255.856 47.8057 259.034 47.2671C259.465 47.1863 259.855 47.2806 260.205 47.5499ZM272.889 51.4681C275.69 54.4034 277.09 58.0187 277.09 62.314C277.09 66.6092 275.69 70.1976 272.889 73.0791C270.654 75.395 267.974 76.8088 264.851 77.3204H264.608C264.285 77.3204 263.975 77.2127 263.679 76.9973C263.356 76.7011 263.195 76.3375 263.195 75.9067V72.8771C263.195 72.527 263.295 72.224 263.497 71.9682C263.699 71.7124 263.975 71.5441 264.326 71.4633C266.049 71.1132 267.517 70.3053 268.729 69.0396C270.371 67.2892 271.193 65.0339 271.193 62.2736C271.193 59.5133 270.371 57.2714 268.729 55.5479C267.517 54.2553 266.049 53.434 264.326 53.0839C263.975 53.0031 263.699 52.8348 263.497 52.579C263.295 52.3231 263.195 52.0202 263.195 51.6701V48.6405C263.195 48.1827 263.363 47.8192 263.699 47.5499C264.036 47.2806 264.42 47.1863 264.851 47.2671C268.028 47.8057 270.708 49.206 272.889 51.4681ZM301.69 62.213C302.848 62.9401 303.73 63.8288 304.336 64.879C304.942 65.9293 305.245 67.1007 305.245 68.3933C305.245 71.4364 304.087 73.7658 301.771 75.3815C300.209 76.5126 298.095 77.2262 295.429 77.5224H295.268C294.891 77.5224 294.581 77.4012 294.338 77.1589C294.015 76.8626 293.854 76.5126 293.854 76.1086V73.2002C293.854 72.8502 293.975 72.5405 294.217 72.2712C294.46 72.0019 294.756 71.8403 295.106 71.7864C296.372 71.6518 297.355 71.3556 298.055 70.8978C298.593 70.5746 298.957 70.1572 299.145 69.6455C299.253 69.3493 299.307 68.9723 299.307 68.5145C299.307 68.2183 299.253 67.9624 299.145 67.747C299.038 67.5316 298.849 67.3296 298.58 67.1411C297.799 66.6025 296.789 66.1447 295.55 65.7677L294.904 65.5657C293.558 65.1887 292.319 64.879 291.188 64.6367C290.945 64.5828 290.555 64.4885 290.016 64.3539L289.572 64.2327C288.603 63.9903 287.579 63.6537 286.502 63.2229C284.913 62.5496 283.607 61.7013 282.584 60.678C281.399 59.4931 280.806 57.9312 280.806 55.9923C280.806 53.3263 281.83 51.1584 283.876 49.4888C285.277 48.3039 287.243 47.5499 289.774 47.2267C290.205 47.1729 290.575 47.294 290.885 47.5903C291.194 47.8865 291.349 48.2366 291.349 48.6405V51.5489C291.349 51.899 291.242 52.2087 291.026 52.478C290.811 52.7473 290.535 52.9021 290.198 52.9425C289.861 52.9829 289.518 53.057 289.168 53.1647C288.387 53.4609 287.835 53.7504 287.512 54.0332C287.189 54.3159 286.96 54.6054 286.825 54.9016C286.691 55.3594 286.623 55.7903 286.623 56.1942C286.623 56.4097 286.744 56.6386 286.987 56.881C287.364 57.258 287.916 57.5946 288.643 57.8908C288.966 58.0255 289.532 58.2274 290.339 58.4967L295.389 59.7489L295.631 59.8297C296.897 60.1798 297.812 60.4491 298.378 60.6376C299.644 61.0685 300.748 61.5936 301.69 62.213ZM294.944 53.0839C294.621 53.0031 294.359 52.8348 294.157 52.579C293.955 52.3231 293.854 52.0202 293.854 51.6701V48.7213C293.854 48.2904 294.029 47.9269 294.379 47.6307C294.514 47.496 294.689 47.4085 294.904 47.3681C295.119 47.3277 295.321 47.321 295.51 47.3479C297.88 47.7249 299.805 48.5328 301.286 49.7716C303.306 51.4412 304.383 53.5686 304.518 56.1539C304.545 56.5309 304.417 56.8742 304.134 57.1839C303.851 57.4936 303.508 57.6484 303.104 57.6484H299.953C299.603 57.6484 299.294 57.5273 299.024 57.2849C298.755 57.0425 298.607 56.7463 298.58 56.3962C298.472 55.6961 298.243 55.1171 297.893 54.6593C297.328 53.986 296.452 53.4744 295.268 53.1243C295.187 53.1243 295.133 53.1108 295.106 53.0839H294.944ZM290.218 71.6249C290.541 71.6787 290.811 71.8403 291.026 72.1096C291.242 72.3789 291.349 72.6751 291.349 72.9983V75.9874C291.349 76.4183 291.188 76.7819 290.865 77.0781C290.595 77.2935 290.286 77.4012 289.936 77.4012H289.734C287.229 77.0242 285.169 76.2029 283.553 74.9372C281.453 73.2676 280.268 70.9382 279.999 67.949C279.945 67.5181 280.066 67.1478 280.362 66.8381C280.658 66.5285 281.008 66.3736 281.412 66.3736H284.603C284.98 66.3736 285.304 66.5015 285.573 66.7574C285.842 67.0132 285.99 67.3296 286.017 67.7066C286.098 69.0531 286.758 70.0899 287.997 70.817C288.562 71.1401 289.303 71.4094 290.218 71.6249ZM311.344 57.5677C310.967 57.5677 310.638 57.4263 310.355 57.1435C310.072 56.8608 309.931 56.5309 309.931 56.1539V48.6405C309.931 48.2635 310.072 47.9336 310.355 47.6509C310.638 47.3681 310.967 47.2267 311.344 47.2267H314.414C314.818 47.2267 315.155 47.3681 315.424 47.6509C315.694 47.9336 315.828 48.2635 315.828 48.6405V56.1539C315.828 56.5309 315.694 56.8608 315.424 57.1435C315.155 57.4263 314.818 57.5677 314.414 57.5677H311.344ZM333.279 47.2267C333.656 47.2267 333.985 47.3681 334.268 47.6509C334.551 47.9336 334.692 48.2635 334.692 48.6405V75.7855C334.692 76.1625 334.551 76.4924 334.268 76.7751C333.985 77.0579 333.656 77.1993 333.279 77.1993H330.209C329.805 77.1993 329.468 77.0579 329.199 76.7751C328.929 76.4924 328.795 76.1625 328.795 75.7855V65.1214H315.828V75.7855C315.828 76.1625 315.694 76.4924 315.424 76.7751C315.155 77.0579 314.818 77.1993 314.414 77.1993H311.344C310.967 77.1993 310.638 77.0579 310.355 76.7751C310.072 76.4924 309.931 76.1625 309.931 75.7855V60.678C309.931 60.301 310.072 59.9711 310.355 59.6884C310.638 59.4056 310.967 59.2642 311.344 59.2642H328.795V48.6405C328.795 48.2635 328.929 47.9336 329.199 47.6509C329.468 47.3681 329.805 47.2267 330.209 47.2267H333.279ZM352.951 47.5499C353.274 47.8192 353.435 48.1827 353.435 48.6405V51.6701C353.435 52.0202 353.334 52.3231 353.132 52.579C352.93 52.8348 352.654 53.0031 352.304 53.0839C350.581 53.434 349.113 54.2553 347.901 55.5479C346.259 57.2714 345.437 59.5133 345.437 62.2736C345.437 65.0339 346.259 67.2892 347.901 69.0396C349.113 70.3053 350.581 71.1132 352.304 71.4633C352.654 71.5441 352.93 71.7124 353.132 71.9682C353.334 72.224 353.435 72.527 353.435 72.8771V75.9067C353.435 76.3375 353.274 76.7011 352.951 76.9973C352.654 77.2127 352.345 77.3204 352.021 77.3204H351.779C348.655 76.8088 345.976 75.395 343.741 73.0791C340.94 70.1976 339.54 66.6092 339.54 62.314C339.54 58.0187 340.94 54.4034 343.741 51.4681C345.922 49.206 348.601 47.8057 351.779 47.2671C352.21 47.1863 352.6 47.2806 352.951 47.5499ZM365.634 51.4681C368.435 54.4034 369.835 58.0187 369.835 62.314C369.835 66.6092 368.435 70.1976 365.634 73.0791C363.399 75.395 360.72 76.8088 357.596 77.3204H357.354C357.03 77.3204 356.721 77.2127 356.424 76.9973C356.101 76.7011 355.94 76.3375 355.94 75.9067V72.8771C355.94 72.527 356.041 72.224 356.243 71.9682C356.445 71.7124 356.721 71.5441 357.071 71.4633C358.794 71.1132 360.262 70.3053 361.474 69.0396C363.116 67.2892 363.938 65.0339 363.938 62.2736C363.938 59.5133 363.116 57.2714 361.474 55.5479C360.262 54.2553 358.794 53.434 357.071 53.0839C356.721 53.0031 356.445 52.8348 356.243 52.579C356.041 52.3231 355.94 52.0202 355.94 51.6701V48.6405C355.94 48.1827 356.108 47.8192 356.445 47.5499C356.781 47.2806 357.165 47.1863 357.596 47.2671C360.774 47.8057 363.453 49.206 365.634 51.4681ZM388.296 47.2267C391.5 47.2267 394.085 48.1491 396.051 49.9937C398.017 51.8384 399 54.2957 399 57.3657C399 60.4356 398.031 62.8862 396.092 64.7174C394.153 66.5486 391.554 67.4643 388.296 67.4643H380.58V75.7047C380.58 76.0817 380.439 76.4116 380.156 76.6943C379.873 76.9771 379.543 77.1185 379.166 77.1185H376.096C375.719 77.1185 375.39 76.9771 375.107 76.6943C374.824 76.4116 374.683 76.0817 374.683 75.7047V63.1825C374.683 62.8054 374.824 62.4756 375.107 62.1928C375.39 61.91 375.719 61.7687 376.096 61.7687H388.053C389.857 61.7687 391.15 61.3782 391.931 60.5972C392.712 59.8971 393.102 58.8333 393.102 57.4061C393.102 55.9788 392.699 54.8814 391.891 54.1139C391.083 53.3465 389.804 52.9627 388.053 52.9627H376.096C375.719 52.9627 375.39 52.8213 375.107 52.5386C374.824 52.2558 374.683 51.9259 374.683 51.5489V48.6405C374.683 48.2635 374.824 47.9336 375.107 47.6509C375.39 47.3681 375.719 47.2267 376.096 47.2267H388.296Z" fill="white"/>
</g>
</g>
<defs>
<clipPath id="clip0_11_520">
<rect width="426" height="124" fill="white" transform="translate(0 0.5)"/>
</clipPath>
<clipPath id="clip1_11_520">
<rect width="372" height="65.1919" fill="white" transform="translate(27 29.5)"/>
</clipPath>
</defs>
</svg>
